#!OML:ASF F:\VICON\USERDATA\INSTALL\rory3\rory3.ASF
:FULLY-SPECIFIED
:DEGREES
620
root 1.45079 29.1946 -5.66609 3.81447 -70.8569 -0.0651957
lowerback 4.65327 1.2138 -3.08569
upperback 1.5765 1.47565 1.27704
thorax -1.09831 0.726238 2.96304
lowerneck -14.0471 4.52381 -8.09564
upperneck 41.4123 8.96479 -1.62564
head 17.3586 1.64977 2.14547
rclavicle 2.46493e-014 -9.93923e-016
rhumerus -30.6171 -4.86999 -75.5555
rradius 39.6285
rwrist 16.0806
rhand -21.8125 4.46154
rfingers 7.12502
rthumb 4.58981 -25.4687
lclavicle 2.46493e-014 -9.93923e-016
lhumerus -32.9004 14.409 76.2277
lradius 28.0394
lwrist -6.40349
lhand -9.93572 27.5024
lfingers 7.12502
lthumb 16.0455 56.858
rfemur -20.8446 -9.03952 17.3668
rtibia 50.2587
rfoot -17.0839 -4.14091
rtoes -7.50477
lfemur -14.6118 0.117727 -23.6332
ltibia 22.2557
lfoot -9.21567 -1.74341
ltoes -12.0292
621
root 1.43126 29.1909 -5.68582 3.76707 -69.8711 -0.155432
lowerback 4.96538 1.20168 -3.25867
upperback 1.53539 1.4414 1.25454
thorax -1.31575 0.713597 3.03307
lowerneck -14.0289 4.47924 -8.05246
upperneck 41.5569 8.87069 -1.54452
head 17.435 1.62326 2.16182
rclavicle -2.39536e-014 8.94531e-015
rhumerus -30.8229 -4.9468 -75.8442
rradius 39.8624
rwrist 15.9988
rhand -21.7541 4.40567
rfingers 7.12502
rthumb 4.64624 -25.5234
lclavicle -2.39536e-014 8.94531e-015
lhumerus -32.9402 14.1529 76.1676
lradius 28.1364
lwrist -6.27446
lhand -9.79104 27.5438
lfingers 7.12502
lthumb 16.1849 56.8881
rfemur -20.8009 -8.37597 17.306
rtibia 49.8337
rfoot -17.5057 -4.65162
rtoes -7.5032
lfemur -14.491 -0.0653953 -23.4902
ltibia 22.2108
lfoot -9.35135 -2.51085
ltoes -12.1205
622
root 1.39852 29.1927 -5.69194 4.56568 -68.8813 -0.960692
lowerback 4.83653 1.1688 -3.05916
upperback 1.51787 1.41237 1.30339
thorax -1.25624 0.698447 2.9751
lowerneck -13.9415 4.42772 -8.13326
upperneck 41.4932 8.76927 -1.41086
head 17.3626 1.60387 2.21645
rclavicle 1.83876e-015 8.74653e-015
rhumerus -30.971 -5.00574 -76.1265
rradius 40.055
rwrist 15.9914
rhand -22.1282 4.08867
rfingers 7.12502
rthumb 4.28493 -25.848
lclavicle 1.83876e-015 8.74653e-015
lhumerus -32.8858 13.9959 76.1811
lradius 28.1302
lwrist -6.03703
lhand -10.0776 27.5341
lfingers 7.12502
lthumb 15.9089 56.9006
rfemur -20.7718 -7.50204 17.437
rtibia 49.3314
rfoot -18.1529 -4.76882
rtoes -5.16629
lfemur -14.4182 -0.221344 -23.1176
ltibia 22.088
lfoot -9.59107 -3.18568
ltoes -11.8476
623
root 1.34983 29.2008 -5.69215 6.31133 -67.736 -2.50407
lowerback 4.16745 1.10208 -2.48758
upperback 1.48953 1.36817 1.41074
thorax -0.89829 0.671887 2.77808
lowerneck -13.8237 4.34978 -8.16885
upperneck 41.4124 8.60877 -1.27762
head 17.2778 1.57006 2.25194
rclavicle 2.43014e-014 -6.55989e-015
rhumerus -31.1644 -4.84357 -76.5018
rradius 40.3095
rwrist 15.947
rhand -22.8683 3.05345
rfingers 7.12502
rthumb 3.57025 -26.8964
lclavicle 2.43014e-014 -6.55989e-015
lhumerus -32.7466 13.5893 76.2664
lradius 28.0774
lwrist -5.84669
lhand -10.0838 27.4569
lfingers 7.12502
lthumb 15.903 56.8239
rfemur -20.8557 -6.85757 17.9248
rtibia 48.6628
rfoot -18.6281 -5.00261
rtoes -4.52341
lfemur -14.5497 -0.494698 -22.4156
ltibia 21.9152
lfoot -9.84533 -3.92795
ltoes -11.5077
624
root 1.30755 29.2091 -5.69081 6.38597 -66.8052 -2.51742
lowerback 3.81797 1.05533 -2.52533
upperback 1.51716 1.31287 1.40646
thorax -0.67167 0.640861 2.80405
lowerneck -13.7344 4.34709 -8.22162
upperneck 41.4387 8.58049 -1.16422
head 17.2574 1.57257 2.30582
rclavicle 1.18277e-014 -1.63003e-014
rhumerus -31.2663 -4.43103 -76.8686
rradius 40.4835
rwrist 16.0289
rhand -23.3861 2.14208
rfingers 7.12502
rthumb 3.07022 -27.8156
lclavicle 1.18277e-014 -1.63003e-014
lhumerus -32.7095 13.2882 76.3192
lradius 28.1337
lwrist -5.58282
lhand -9.86536 27.4574
lfingers 7.12502
lthumb 16.1133 56.8075
rfemur -20.8289 -6.11244 17.7536
rtibia 48.0448
rfoot -18.9423 -5.25288
rtoes -4.70691
lfemur -14.3594 -0.922056 -22.3174
ltibia 21.6439
lfoot -10.0319 -4.33237
ltoes -10.708
625
root 1.27631 29.2135 -5.69868 4.59666 -65.9709 -0.802925
lowerback 3.98214 0.988434 -3.38704
upperback 1.58277 1.18677 1.23867
thorax -0.700257 0.575689 3.12033
lowerneck -13.7174 4.39957 -8.19397
upperneck 41.4387 8.67027 -1.17366
head 17.251 1.61732 2.31278
rclavicle 6.79347e-014 3.57812e-015
rhumerus -31.327 -3.8691 -77.2209
rradius 40.7155
rwrist 15.8108
rhand -23.3666 2.14874
rfingers 7.12502
rthumb 3.08907 -27.8086
lclavicle 6.79347e-014 3.57812e-015
lhumerus -32.7981 13.3899 76.2325
lradius 28.3398
lwrist -5.27651
lhand -9.99278 27.5383
lfingers 7.12502
lthumb 15.9906 56.8983
rfemur -20.6519 -5.11806 16.7758
rtibia 47.5325
rfoot -19.2616 -5.29488
rtoes -3.36925
lfemur -13.8943 -1.33433 -22.9588
ltibia 21.319
lfoot -10.0862 -4.79252
ltoes -9.40455
